<svg width="32" height="32" viewBox="0 0 100 100" fill="none" xmlns="http://www.w3.org/2000/svg">
  <!-- 緑の角丸背景 -->
  <rect width="100" height="100" rx="22" fill="#22C55E"/>
  <!-- 茎 + 左葉 -->
  <path d="M 50 78 L 50 50 C 50 36 47 29 42 24 Q 34 16 24 16 Q 20 16 20 20 Q 20 30 26 38 C 32 46 40 50 50 50"
    stroke="white" stroke-width="5.5" stroke-linecap="round" stroke-linejoin="round" fill="none"/>
  <!-- 左葉脈 -->
  <path d="M 36 30 Q 40 36 46 42"
    stroke="white" stroke-width="2.5" stroke-linecap="round" fill="none" opacity="0.45"/>
  <!-- 右葉 -->
  <path d="M 50 50 C 60 50 68 46 74 38 Q 80 30 80 20 Q 80 16 76 16 Q 66 16 58 24 C 53 29 50 36 50 45"
    stroke="white" stroke-width="5.5" stroke-linecap="round" stroke-linejoin="round" fill="none"/>
  <!-- 右葉脈 -->
  <path d="M 64 30 Q 60 36 54 42"
    stroke="white" stroke-width="2.5" stroke-linecap="round" fill="none" opacity="0.45"/>
  <!-- 地面の弧 -->
  <path d="M 28 82 Q 36 88 50 88 Q 64 88 72 82"
    stroke="white" stroke-width="5.5" stroke-linecap="round" fill="none"/>
</svg>
